<?xml version="1.0" encoding="UTF-8"?>
<svg version="1.1" xmlns="http://www.w3.org/2000/svg" width="198" height="198">
<path d="M0 0 C1.17887665 3.68398952 1 7.15947033 1 11 C1.04979584 13.760165 1.04979584 13.760165 2 16 C4.39529669 17.32481546 4.39529669 17.32481546 7 18 C7.66 18.33 8.32 18.66 9 19 C12.73000139 19.49078966 16.4629328 19.89814487 20.203125 20.3046875 C25.23433441 21.22604066 28.78250746 23.18833831 33 26 C36.39063676 25.81672234 37.98182486 25.01321828 40.75 23 C44.77667562 20.52204577 48.30392604 19.95303926 53 20 C53.66 20.33 54.32 20.66 55 21 C55 21.99 55 22.98 55 24 C56.99863756 23.42055068 56.99863756 23.42055068 59 22 C60.15835673 19.02496878 60.15835673 19.02496878 61 16 C63 14 63 14 64.98828125 13.8828125 C70.23079736 14.42909149 73.06060643 15.27946163 77 19 C78.65661761 20.01656081 80.32111559 21.02065076 82 22 C83 23 83 23 83.125 26.4375 C83 30 83 30 82 32 C82.9590625 32.185625 82.9590625 32.185625 83.9375 32.375 C84.9584375 32.684375 84.9584375 32.684375 86 33 C87.50662097 36.01324195 87.17770373 38.68286377 87 42 C85 44 85 44 81.5 44.4375 C80.345 44.623125 79.19 44.80875 78 45 C75.52034901 48.71947649 75.68193704 51.26083217 75.5390625 55.625 C75 58 75 58 73.2109375 59.6875 C71 61 71 61 68.91015625 61.9453125 C66.55417237 63.2461625 65.81563931 64.58530145 64.4375 66.875 C60.73295249 72.05948125 56.04889961 73.57566895 50 75 C45.93375691 75.44359016 43.48874787 75.14692177 40 73 C40 73.66 40 74.32 40 75 C41.423125 75.37125 41.423125 75.37125 42.875 75.75 C46 77 46 77 47.4375 78.6875 C48.31492413 82.29468808 48.12464939 84.43861028 47 88 C45.56420898 89.2043457 45.56420898 89.2043457 43.68359375 90.30078125 C42.96042969 90.72689697 42.23726562 91.1530127 41.4921875 91.59204102 C40.25855469 92.28898071 40.25855469 92.28898071 39 93 C38.08992188 93.5168335 37.17984375 94.03366699 36.2421875 94.56616211 C33.14779286 96.30726871 30.04352075 98.02972791 26.9375 99.75 C4.92812713 110.78622632 4.92812713 110.78622632 -13 127 C-18.821703 134.56102661 -18.821703 134.56102661 -23.1875 136.1875 C-26.42735246 135.97150984 -27.68648107 135.22453744 -30 133 C-30.495 133.495 -30.99 133.99 -31.5 134.5 C-35.14951034 136.68970621 -37.77948352 136.27675518 -42 136 C-42.33 135.67 -42.66 135.34 -43 135 C-44.8871875 134.8453125 -44.8871875 134.8453125 -46.8125 134.6875 C-49.96304972 134.33681044 -50.89431768 134.0819038 -53.5 132.0625 C-55 130 -55 130 -55 128 C-55.9075 127.773125 -56.815 127.54625 -57.75 127.3125 C-61.59880751 125.75817389 -62.52175672 124.28002786 -65 121 C-66.33518566 119.81165757 -67.69120857 118.64648955 -69.0625 117.5 C-72.92625688 114.16867889 -75.70046801 111.57597508 -76.3125 106.3125 C-76 103 -76 103 -75.40234375 100.8515625 C-73.28624537 93.02073136 -75.29665222 87.47217477 -78 80 C-78.15984375 79.23816406 -78.3196875 78.47632812 -78.484375 77.69140625 C-78.65453125 77.13324219 -78.8246875 76.57507813 -79 76 C-81.40952023 74.75285597 -81.40952023 74.75285597 -84 74 C-84.66 73.67 -85.32 73.34 -86 73 C-86 71.02 -86 69.04 -86 67 C-85.3709375 66.72027344 -84.741875 66.44054687 -84.09375 66.15234375 C-77.51777208 63.07233 -70.22765798 59.65332999 -66.9453125 52.796875 C-66.20281743 50.54642601 -65.57944094 48.29736091 -65 46 C-63.0864179 40.05782401 -60.84065005 37.93205978 -55.875 34.5546875 C-52.93739436 32.11892283 -52.14715999 29.58487498 -51 26 C-51.969375 25.690625 -52.93875 25.38125 -53.9375 25.0625 C-57 24 -57 24 -58 23 C-58.375 20.625 -58.375 20.625 -58 18 C-56.34151823 16.98648336 -54.67334039 15.98879205 -53 15 C-51.9139312 13.29077608 -51.9139312 13.29077608 -51 11.375 C-49 8 -49 8 -46.625 6.8125 C-43.53971987 7.03287715 -42.41041006 8.17653726 -40.0234375 10.0078125 C-35.49246249 12.22956472 -29.96483927 11.85267539 -25 12 C-25 10.35 -25 8.7 -25 7 C-23.87980469 6.66226563 -22.75960937 6.32453125 -21.60546875 5.9765625 C-20.13273364 5.52629954 -18.66008169 5.07576447 -17.1875 4.625 C-16.44951172 4.40328125 -15.71152344 4.1815625 -14.95117188 3.953125 C-13.88286133 3.62441406 -13.88286133 3.62441406 -12.79296875 3.2890625 C-12.1383667 3.09006348 -11.48376465 2.89106445 -10.80932617 2.68603516 C-3.33441871 -0.14819639 -3.33441871 -0.14819639 0 0 Z M-12.67578125 7.21875 C-14.56998322 7.85545655 -16.50090621 8.38204885 -18.4375 8.875 C-21.23958333 9.76041667 -21.23958333 9.76041667 -22.125 12.5625 C-22.558125 13.7690625 -22.558125 13.7690625 -23 15 C-25.89105349 16.06815472 -28.57087774 16.08171565 -31.625 16 C-34.94299631 15.87337758 -34.94299631 15.87337758 -38 17 C-39.46484375 15.66536458 -40.9296875 14.33072917 -42.39453125 12.99609375 C-42.92433594 12.66738281 -43.45414063 12.33867188 -44 12 C-47.79403384 13.26467795 -48.06684293 14.61697513 -50 18 C-51.6875 19.8125 -51.6875 19.8125 -53 21 C-51.7934375 21.433125 -51.7934375 21.433125 -50.5625 21.875 C-48 23 -48 23 -47 25 C-46.5 27.625 -46.5 27.625 -47 31 C-49.72714603 34.99469277 -53.00521523 38.22627851 -56.8125 41.1875 C-60.24496599 44.03154325 -60.8009935 47.04115052 -61.6875 51.3125 C-64.38340311 58.88670397 -70.36219531 63.78754702 -77 68 C-78.485 68.495 -78.485 68.495 -80 69 C-79.24831665 72.04929066 -79.24831665 72.04929066 -77.109375 73.76953125 C-72.21623797 78.94357059 -69.72285973 87.80683643 -69.5625 94.875 C-69.71080555 97.84660382 -70.40585991 100.26336353 -71.375 103.0625 C-72.05989868 107.3773617 -71.94432889 107.83157222 -69.5625 111.1875 C-66.44581524 114.8415442 -62.96712594 117.32981908 -59 120 C-58.34 120.99 -57.68 121.98 -57 123 C-56.195625 123.474375 -55.39125 123.94875 -54.5625 124.4375 C-52 126 -52 126 -50.75 128.0625 C-47.88469839 131.23479821 -44.12708651 131.52687721 -40 132 C-36.40773066 131.84034358 -35.38739571 131.34551509 -32.6875 128.9375 C-32.130625 128.298125 -31.57375 127.65875 -31 127 C-28 128 -28 128 -26 131 C-22.64388728 130.7012884 -21.26498576 130.26212105 -18.83203125 127.85546875 C-18.16558594 126.97503906 -17.49914062 126.09460938 -16.8125 125.1875 C-15.80123047 123.87845703 -15.80123047 123.87845703 -14.76953125 122.54296875 C-12.98212103 120.1411272 -12.98212103 120.1411272 -12.01171875 117.80078125 C-10.69941114 115.46497505 -9.40423085 115.12394005 -7 114 C2.74222143 108.76823414 12.35398327 103.29023698 21.84838867 97.62231445 C25.24438515 95.59863164 28.65163805 93.62916461 32.140625 91.76953125 C33.11757324 91.24093506 33.11757324 91.24093506 34.11425781 90.70166016 C35.88205189 89.75093299 37.65947064 88.81816368 39.4375 87.88671875 C42.222968 86.22172556 42.222968 86.22172556 42.875 83.26953125 C42.91625 82.52058594 42.9575 81.77164063 43 81 C40.36 79.35 37.72 77.7 35 76 C35.3125 73.625 35.3125 73.625 36 71 C39.22213757 68.85190829 40.27775401 68.70613847 44 69 C44.33 69.33 44.66 69.66 45 70 C50.4876837 69.95378793 55.39556809 69.10531454 60 66 C61.35278115 64.01310269 62.68568305 62.01254782 64 60 C65.03125 59.443125 66.0625 58.88625 67.125 58.3125 C71.05886983 55.14830035 70.86548779 52.46813375 71.5234375 47.63671875 C72.1608298 44.11016301 73.24983313 42.29180573 76 40 C79.25 39.1875 79.25 39.1875 82 39 C82 38.01 82 37.02 82 36 C81.01 35.34 80.02 34.68 79 34 C78.91796875 31.9765625 78.91796875 31.9765625 79.1875 29.625 C79.33159491 27.22379657 79.33159491 27.22379657 79 25 C76.44363894 22.46209298 76.44363894 22.46209298 73 21 C71.4221875 20.1028125 71.4221875 20.1028125 69.8125 19.1875 C66.99716768 17.63409079 66.99716768 17.63409079 64 19 C63.835 20.093125 63.67 21.18625 63.5 22.3125 C62 26 62 26 59.53515625 27.24609375 C57.58222936 27.90562359 55.6126671 28.5181286 53.62890625 29.078125 C50.97045321 29.79555601 50.97045321 29.79555601 49.40234375 31.609375 C48 33 48 33 44 33 C44.75 28.25 44.75 28.25 47 26 C44.4988252 26.44663836 43.17243054 26.84604416 41.25 28.5625 C37.9453669 30.67379337 34.75734576 30.67983104 31 30 C28.96166576 28.7260411 26.96147874 27.38938077 25 26 C21.31672 24.8569131 17.84401658 24.1199392 14.03125 23.578125 C3.55311308 22.07383802 3.55311308 22.07383802 -1 18 C-2.76051348 15.08647417 -3.32738694 12.62294806 -3.625 9.25 C-3.73714844 8.05117188 -3.73714844 8.05117188 -3.8515625 6.828125 C-3.90054688 6.22484375 -3.94953125 5.6215625 -4 5 C-7.09331545 5 -9.77330231 6.20919211 -12.67578125 7.21875 Z " fill="#00ffcc" transform="translate(99,31)"/>
<path d="M0 0 C0.886875 0.33 1.77375 0.66 2.6875 1 C2.6875 1.33 2.6875 1.66 2.6875 2 C0.0475 2 -2.5925 2 -5.3125 2 C-2.42834117 3.44207941 0.10471528 3.09394887 3.3125 3.0625 C5.09527344 3.04896484 5.09527344 3.04896484 6.9140625 3.03515625 C8.28691406 3.01775391 8.28691406 3.01775391 9.6875 3 C6.83109812 4.58400468 4.42952961 5.3725034 1.1875 5.75 C0.4346875 5.84796875 -0.318125 5.9459375 -1.09375 6.046875 C-3.65832212 5.9926939 -5.12484507 5.29270519 -7.3125 4 C-7.3125 4.66 -7.3125 5.32 -7.3125 6 C-6.36375 6.2475 -5.415 6.495 -4.4375 6.75 C-1.3125 8 -1.3125 8 0.125 9.6875 C1.00242413 13.29468808 0.81214939 15.43861028 -0.3125 19 C-1.74829102 20.2043457 -1.74829102 20.2043457 -3.62890625 21.30078125 C-4.35207031 21.72689697 -5.07523437 22.1530127 -5.8203125 22.59204102 C-7.05394531 23.28898071 -7.05394531 23.28898071 -8.3125 24 C-9.22257812 24.5168335 -10.13265625 25.03366699 -11.0703125 25.56616211 C-14.16470714 27.30726871 -17.26897925 29.02972791 -20.375 30.75 C-42.38437287 41.78622632 -42.38437287 41.78622632 -60.3125 58 C-66.134203 65.56102661 -66.134203 65.56102661 -70.5 67.1875 C-73.73985246 66.97150984 -74.99898107 66.22453744 -77.3125 64 C-78.3025 64.495 -78.3025 64.495 -79.3125 65 C-79.3125 64.01 -79.3125 63.02 -79.3125 62 C-80.7975 62.99 -80.7975 62.99 -82.3125 64 C-84.64449388 64.07905064 -86.98082622 64.08798769 -89.3125 64 C-89.3125 63.34 -89.3125 62.68 -89.3125 62 C-88.425625 62.103125 -87.53875 62.20625 -86.625 62.3125 C-82.30565142 61.90501428 -81.05607025 60.2277297 -78.3125 57 C-74.4375 58.75 -74.4375 58.75 -73.3125 61 C-70.19287104 60.67949018 -68.693593 60.3907818 -66.46875 58.109375 C-65.64890625 56.94148438 -65.64890625 56.94148438 -64.8125 55.75 C-57.10038021 45.27409479 -47.12155802 39.79653361 -35.93359375 33.578125 C-30.64068971 30.6346519 -25.38245258 27.63121248 -20.125 24.625 C-19.22813477 24.11308105 -18.33126953 23.60116211 -17.40722656 23.07373047 C-15.74729375 22.12479277 -14.09000974 21.17119909 -12.43603516 20.21191406 C-10.71500732 19.2297133 -8.96130997 18.30490852 -7.19921875 17.3984375 C-6.57660156 16.93695313 -5.95398438 16.47546875 -5.3125 16 C-5.3125 14.68 -5.3125 13.36 -5.3125 12 C-6.26125 11.54625 -7.21 11.0925 -8.1875 10.625 C-11.3125 9 -11.3125 9 -13.3125 7 C-13.15326801 3.89497628 -12.73740203 2.44007711 -10.5625 0.1875 C-6.70230254 -1.84982644 -4.09830603 -1.23722446 0 0 Z " fill="#00ffcc" transform="translate(146.3125,100)"/>
<path d="M0 0 C5.24251611 0.54627899 8.07232518 1.39664913 12.01171875 5.1171875 C13.66833636 6.13374831 15.33283434 7.13783826 17.01171875 8.1171875 C18.01171875 9.1171875 18.01171875 9.1171875 18.13671875 12.5546875 C18.01171875 16.1171875 18.01171875 16.1171875 17.01171875 18.1171875 C17.65109375 18.2409375 18.29046875 18.3646875 18.94921875 18.4921875 C19.97015625 18.8015625 19.97015625 18.8015625 21.01171875 19.1171875 C22.51833972 22.13042945 22.18942248 24.80005127 22.01171875 28.1171875 C20.01171875 30.1171875 20.01171875 30.1171875 16.51171875 30.5546875 C15.35671875 30.7403125 14.20171875 30.9259375 13.01171875 31.1171875 C10.53206776 34.83666399 10.69365579 37.37801967 10.55078125 41.7421875 C10.01171875 44.1171875 10.01171875 44.1171875 8.22265625 45.8046875 C6.01171875 47.1171875 6.01171875 47.1171875 3.92578125 48.0546875 C1.53816731 49.38005687 0.78041407 50.79151187 -0.61328125 53.1171875 C-3.07127747 56.55215943 -4.7788162 57.76136467 -8.92578125 58.6171875 C-15.02323098 59.38623521 -20.32689854 59.86210033 -25.98828125 57.1171875 C-25.98828125 56.7871875 -25.98828125 56.4571875 -25.98828125 56.1171875 C-22.35828125 56.4471875 -18.72828125 56.7771875 -14.98828125 57.1171875 C-14.98828125 56.4571875 -14.98828125 55.7971875 -14.98828125 55.1171875 C-14.28960937 54.95863281 -13.5909375 54.80007812 -12.87109375 54.63671875 C-10.14982771 53.93905706 -7.57976489 53.20491726 -4.98828125 52.1171875 C-3.64924911 49.76964352 -3.64924911 49.76964352 -2.98828125 47.1171875 C-1.12518479 45.15237025 0.80490564 43.72632206 3.01171875 42.1171875 C3.67171875 42.1171875 4.33171875 42.1171875 5.01171875 42.1171875 C4.92921875 40.9415625 4.84671875 39.7659375 4.76171875 38.5546875 C4.7704045 33.65592284 6.14255933 31.07197481 9.01171875 27.1171875 C11.57421875 25.1171875 11.57421875 25.1171875 14.01171875 24.1171875 C15.00171875 24.4471875 15.99171875 24.7771875 17.01171875 25.1171875 C17.01171875 24.1271875 17.01171875 23.1371875 17.01171875 22.1171875 C15.69171875 21.4571875 14.37171875 20.7971875 13.01171875 20.1171875 C13.09873047 19.19486328 13.09873047 19.19486328 13.1875 18.25390625 C13.32448269 15.79995922 13.3546731 13.55259748 13.01171875 11.1171875 C10.94074178 9.07386783 10.94074178 9.07386783 8.01171875 8.1171875 C6.95984375 7.5603125 5.90796875 7.0034375 4.82421875 6.4296875 C2.22693725 4.97622568 2.22693725 4.97622568 0.01171875 5.1171875 C-0.21515625 6.2103125 -0.44203125 7.3034375 -0.67578125 8.4296875 C-1.98828125 12.1171875 -1.98828125 12.1171875 -4.11328125 14.0546875 C-7.94578298 15.47104683 -10.91541771 15.32428226 -14.98828125 15.1171875 C-14.65828125 13.4671875 -14.32828125 11.8171875 -13.98828125 10.1171875 C-16.29828125 10.1171875 -18.60828125 10.1171875 -20.98828125 10.1171875 C-20.98828125 9.1271875 -20.98828125 8.1371875 -20.98828125 7.1171875 C-19.53092038 6.92227298 -18.07233532 6.73649392 -16.61328125 6.5546875 C-15.80117187 6.45027344 -14.9890625 6.34585938 -14.15234375 6.23828125 C-11.98828125 6.1171875 -11.98828125 6.1171875 -9.98828125 7.1171875 C-9.98828125 8.1071875 -9.98828125 9.0971875 -9.98828125 10.1171875 C-7.98964369 9.53773818 -7.98964369 9.53773818 -5.98828125 8.1171875 C-4.82992452 5.14215628 -4.82992452 5.14215628 -3.98828125 2.1171875 C-1.98828125 0.1171875 -1.98828125 0.1171875 0 0 Z " fill="#00ffcc" transform="translate(163.98828125,44.8828125)"/>
<path d="M0 0 C5.24251611 0.54627899 8.07232518 1.39664913 12.01171875 5.1171875 C13.66833636 6.13374831 15.33283434 7.13783826 17.01171875 8.1171875 C18.01171875 9.1171875 18.01171875 9.1171875 18.07421875 12.6796875 C18.05359375 13.8140625 18.03296875 14.9484375 18.01171875 16.1171875 C17.02171875 16.4471875 16.03171875 16.7771875 15.01171875 17.1171875 C15.01171875 14.8071875 15.01171875 12.4971875 15.01171875 10.1171875 C14.28984375 10.1996875 13.56796875 10.2821875 12.82421875 10.3671875 C9.15784239 10.04128738 7.80996866 8.42574367 5.01171875 6.1171875 C2.32664546 5.32772141 2.32664546 5.32772141 0.01171875 5.1171875 C-0.21515625 6.2103125 -0.44203125 7.3034375 -0.67578125 8.4296875 C-1.98828125 12.1171875 -1.98828125 12.1171875 -4.11328125 14.0546875 C-7.94578298 15.47104683 -10.91541771 15.32428226 -14.98828125 15.1171875 C-14.65828125 13.4671875 -14.32828125 11.8171875 -13.98828125 10.1171875 C-16.29828125 10.1171875 -18.60828125 10.1171875 -20.98828125 10.1171875 C-20.98828125 9.1271875 -20.98828125 8.1371875 -20.98828125 7.1171875 C-19.53092038 6.92227298 -18.07233532 6.73649392 -16.61328125 6.5546875 C-15.80117187 6.45027344 -14.9890625 6.34585938 -14.15234375 6.23828125 C-11.98828125 6.1171875 -11.98828125 6.1171875 -9.98828125 7.1171875 C-9.98828125 8.1071875 -9.98828125 9.0971875 -9.98828125 10.1171875 C-7.98964369 9.53773818 -7.98964369 9.53773818 -5.98828125 8.1171875 C-4.82992452 5.14215628 -4.82992452 5.14215628 -3.98828125 2.1171875 C-1.98828125 0.1171875 -1.98828125 0.1171875 0 0 Z " fill="#00ffcc" transform="translate(163.98828125,44.8828125)"/>
<path d="M0 0 C1.3303125 0.495 1.3303125 0.495 2.6875 1 C2.6875 1.33 2.6875 1.66 2.6875 2 C0.0475 2 -2.5925 2 -5.3125 2 C-2.42834117 3.44207941 0.10471528 3.09394887 3.3125 3.0625 C5.09527344 3.04896484 5.09527344 3.04896484 6.9140625 3.03515625 C8.28691406 3.01775391 8.28691406 3.01775391 9.6875 3 C6.83109812 4.58400468 4.42952961 5.3725034 1.1875 5.75 C0.4346875 5.84796875 -0.318125 5.9459375 -1.09375 6.046875 C-3.65832212 5.9926939 -5.12484507 5.29270519 -7.3125 4 C-7.3125 4.66 -7.3125 5.32 -7.3125 6 C-6.36375 6.2475 -5.415 6.495 -4.4375 6.75 C-1.3125 8 -1.3125 8 0.125 9.6875 C1.00242413 13.29468808 0.81214939 15.43861028 -0.3125 19 C-4.66967618 23.13508711 -9.43805682 24.6328473 -15.3125 25 C-15.09765625 23.171875 -15.09765625 23.171875 -14.3125 21 C-12.24609375 19.515625 -12.24609375 19.515625 -9.75 18.25 C-8.92371094 17.82203125 -8.09742188 17.3940625 -7.24609375 16.953125 C-6.60800781 16.63859375 -5.96992188 16.3240625 -5.3125 16 C-5.3125 14.68 -5.3125 13.36 -5.3125 12 C-6.26125 11.54625 -7.21 11.0925 -8.1875 10.625 C-11.3125 9 -11.3125 9 -13.3125 7 C-13.15326801 3.89497628 -12.73740203 2.44007711 -10.5625 0.1875 C-6.70230254 -1.84982644 -4.09830603 -1.23722446 0 0 Z " fill="#00ffcc" transform="translate(146.3125,100)"/>
<path d="M0 0 C6.42680415 0.96529074 10.56092686 2.33178788 16 6 C19.94574208 5.90605376 21.97907951 4.39590246 25 2 C25.66 2 26.32 2 27 2 C27 2.66 27 3.32 27 4 C29.31 4 31.62 4 34 4 C33.67 5.65 33.34 7.3 33 9 C33.99 9.33 34.98 9.66 36 10 C33.75 12.0625 33.75 12.0625 31 14 C28.6875 13.75 28.6875 13.75 27 13 C26 9.125 26 9.125 26 8 C25.505 8.495 25.01 8.99 24.5 9.5 C21.04366223 11.57380266 17.88412793 11.70277023 14 11 C11.96166576 9.7260411 9.96147874 8.38938077 8 7 C2.27659988 5.22377238 -3.53388753 4.40279063 -9.4609375 3.5625 C-12 3 -12 3 -14 1 C-9.05 1.33 -4.1 1.66 1 2 C0.67 1.34 0.34 0.68 0 0 Z " fill="#00ffcc" transform="translate(116,51)"/>
<path d="M0 0 C4.44321353 0.51944043 6.83253477 2.10837085 10.25 4.9375 C11.12140625 5.64777344 11.9928125 6.35804688 12.890625 7.08984375 C15 9 15 9 16 11 C16.78375 11.45375 17.5675 11.9075 18.375 12.375 C21 14 21 14 22.375 16.125 C24.82455821 18.95141332 27.40487399 18.72866974 31 19 C31 19.99 31 20.98 31 22 C34.46941546 21.54177532 37.67395049 21.10868317 41 20 C41 21.32 41 22.64 41 24 C37.74696956 25.62651522 34.60774398 25.11453156 31 25 C30.67 24.67 30.34 24.34 30 24 C28.741875 23.896875 27.48375 23.79375 26.1875 23.6875 C23.03695028 23.33681044 22.10568232 23.0819038 19.5 21.0625 C18 19 18 19 18 17 C16.63875 16.6596875 16.63875 16.6596875 15.25 16.3125 C11.42316293 14.76704657 10.44756272 13.26341696 8 10 C6.20184262 8.45247075 4.36513711 6.9781895 2.48828125 5.52734375 C0.74235714 3.73559486 0.39328043 2.43833866 0 0 Z " fill="#00ffcc" transform="translate(26,142)"/>
<path d="M0 0 C3.02719094 1.04563952 3.8974299 1.81034208 5.44921875 4.6796875 C5.85785156 5.73414062 6.26648437 6.78859375 6.6875 7.875 C7.10386719 8.92429687 7.52023438 9.97359375 7.94921875 11.0546875 C10.3784172 17.86366755 10.9332153 24.23878919 8.875 31.25 C7.95842271 35.17818837 8.06277524 36.55604487 10 40 C9.01 40 8.02 40 7 40 C6.67 40.66 6.34 41.32 6 42 C3.24873812 38.102379 2.55237938 35.74477857 3 31 C3.19722656 30.29101562 3.39445312 29.58203125 3.59765625 28.8515625 C5.71375463 21.02073136 3.70334778 15.47217477 1 8 C0.85175781 7.23429687 0.70351563 6.46859375 0.55078125 5.6796875 C0.36902344 5.12539062 0.18726563 4.57109375 0 4 C-0.99 3.67 -1.98 3.34 -3 3 C-2.01 2.01 -1.02 1.02 0 0 Z " fill="#00ffcc" transform="translate(20,103)"/>
<path d="M0 0 C1.32 0 2.64 0 4 0 C4.23783203 1.58941406 4.23783203 1.58941406 4.48046875 3.2109375 C4.7149655 4.59915823 4.95070767 5.98716899 5.1875 7.375 C5.28869141 8.07367188 5.38988281 8.77234375 5.49414062 9.4921875 C5.85477954 11.79741632 5.85477954 11.79741632 7 15 C9.25312333 16.55962439 9.25312333 16.55962439 12 17 C12.825 17.185625 13.65 17.37125 14.5 17.5625 C15.7375 17.7790625 15.7375 17.7790625 17 18 C20.53825677 18.66540351 23.71749355 19.46816366 27 21 C27 21.33 27 21.66 27 22 C24.64499052 21.88482579 22.29150927 21.75812022 19.9375 21.625 C18.62652344 21.55539063 17.31554687 21.48578125 15.96484375 21.4140625 C6.66155714 20.44248774 6.66155714 20.44248774 3.07421875 17.328125 C1.56230765 14.0514013 1.71282032 11.33846833 1.8125 7.75 C1.83957031 6.48671875 1.86664063 5.2234375 1.89453125 3.921875 C1.92933594 2.95765625 1.96414062 1.9934375 2 1 C1.34 0.67 0.68 0.34 0 0 Z " fill="#00ffcc" transform="translate(94,32)"/>
<path d="M0 0 C0.99 0 1.98 0 3 0 C2.68936741 4.3488562 1.68313759 7.4555549 -1.28515625 10.7421875 C-6.28737745 14.41124269 -14.0612193 14.46578672 -20 14 C-22.9375 13 -22.9375 13 -25 12 C-25 11.67 -25 11.34 -25 11 C-21.37 11.33 -17.74 11.66 -14 12 C-14 11.34 -14 10.68 -14 10 C-13.30132812 9.84144531 -12.60265625 9.68289062 -11.8828125 9.51953125 C-9.15911914 8.82124726 -6.59187804 8.09358309 -4 7 C-2.38993968 4.56437999 -2.38993968 4.56437999 -2 2 C-1.34 1.34 -0.68 0.68 0 0 Z " fill="#00ffcc" transform="translate(163,90)"/>
<path d="M0 0 C0.66 0.66 1.32 1.32 2 2 C5.12196336 2.46486718 5.12196336 2.46486718 8.625 2.625 C9.81351563 2.69976562 11.00203125 2.77453125 12.2265625 2.8515625 C13.14179687 2.90054688 14.05703125 2.94953125 15 3 C15 3.33 15 3.66 15 4 C11.37 4 7.74 4 4 4 C4 4.66 4 5.32 4 6 C8.29 6 12.58 6 17 6 C16.67 6.66 16.34 7.32 16 8 C14.73542969 7.98259766 14.73542969 7.98259766 13.4453125 7.96484375 C12.34960938 7.95582031 11.25390625 7.94679688 10.125 7.9375 C9.03445312 7.92589844 7.94390625 7.91429687 6.8203125 7.90234375 C4.04822454 7.80255697 4.04822454 7.80255697 2 9 C1.01 8.34 0.02 7.68 -1 7 C-1 6.34 -1 5.68 -1 5 C-2.65 4.67 -4.3 4.34 -6 4 C-6.99 5.32 -7.98 6.64 -9 8 C-8.125 3.25 -8.125 3.25 -7 1 C-7.66 0.34 -8.32 -0.32 -9 -1 C-5.19825711 -2.26724763 -3.6488868 -1.4750819 0 0 Z " fill="#00ffcc" transform="translate(59,40)"/>
<path d="M0 0 C1.98 0 3.96 0 6 0 C5.01 0.33 4.02 0.66 3 1 C2.04998712 3.06758629 2.04998712 3.06758629 1.4375 5.5 C0.74609375 7.96875 0.74609375 7.96875 0 10 C-0.99 10.495 -0.99 10.495 -2 11 C-2.33 11.99 -2.66 12.98 -3 14 C-1.35 14.33 0.3 14.66 2 15 C2 17.64 2 20.28 2 23 C0.79371992 20.66785852 -0.1654738 18.50357861 -1 16 C-4.51190809 14.77030122 -4.51190809 14.77030122 -8 14 C-8.3125 11.6875 -8.3125 11.6875 -8 9 C-6.34928604 7.97388051 -4.68029994 6.97691857 -3 6 C-1.17370206 2.93319201 -1.17370206 2.93319201 0 0 Z " fill="#00ffcc" transform="translate(49,40)"/>
<path d="M0 0 C3.875 1.75 3.875 1.75 5 4 C7.32156597 4.40729228 9.6568787 4.74438677 12 5 C11.67 6.32 11.34 7.64 11 9 C8.25 9.6875 8.25 9.6875 5 10 C2.625 8.5625 2.625 8.5625 1 7 C0.01 7.495 0.01 7.495 -1 8 C-1 7.01 -1 6.02 -1 5 C-1.99 5.66 -2.98 6.32 -4 7 C-6.33199388 7.07905064 -8.66832622 7.08798769 -11 7 C-11 6.34 -11 5.68 -11 5 C-10.113125 5.103125 -9.22625 5.20625 -8.3125 5.3125 C-3.99315142 4.90501428 -2.74357025 3.2277297 0 0 Z " fill="#00ffcc" transform="translate(68,157)"/>
<path d="M0 0 C0.680625 0.309375 1.36125 0.61875 2.0625 0.9375 C5.36965912 2.13370649 8.51545878 2.59005397 12 3 C12 3.99 12 4.98 12 6 C15.46941546 5.54177532 18.67395049 5.10868317 22 4 C22 5.32 22 6.64 22 8 C18.74696956 9.62651522 15.60774398 9.11453156 12 9 C11.67 8.67 11.34 8.34 11 8 C9.72125 7.9175 8.4425 7.835 7.125 7.75 C3.26956083 7.32852726 3.26956083 7.32852726 1 4.5625 C0 2 0 2 0 0 Z " fill="#00ffcc" transform="translate(45,158)"/>
<path d="M0 0 C1.3303125 0.495 1.3303125 0.495 2.6875 1 C2.6875 1.33 2.6875 1.66 2.6875 2 C0.0475 2 -2.5925 2 -5.3125 2 C-2.42834117 3.44207941 0.10471528 3.09394887 3.3125 3.0625 C5.09527344 3.04896484 5.09527344 3.04896484 6.9140625 3.03515625 C8.28691406 3.01775391 8.28691406 3.01775391 9.6875 3 C6.83109812 4.58400468 4.42952961 5.3725034 1.1875 5.75 C0.4346875 5.84796875 -0.318125 5.9459375 -1.09375 6.046875 C-3.65832212 5.9926939 -5.12484507 5.29270519 -7.3125 4 C-7.3125 4.66 -7.3125 5.32 -7.3125 6 C-6.6525 6.33 -5.9925 6.66 -5.3125 7 C-6.6325 6.67 -7.9525 6.34 -9.3125 6 C-9.3125 5.01 -9.3125 4.02 -9.3125 3 C-11.64325929 3.95865509 -11.64325929 3.95865509 -13.3125 7 C-12.98622714 3.98197607 -12.70168764 2.40308719 -10.5625 0.1875 C-6.70230254 -1.84982644 -4.09830603 -1.23722446 0 0 Z " fill="#00ffcc" transform="translate(146.3125,100)"/>
<path d="M0 0 C0 2.77996107 -0.21297929 5.42492567 -0.5 8.1875 C-0.5928125 9.08855469 -0.685625 9.98960938 -0.78125 10.91796875 C-0.88953125 11.94857422 -0.88953125 11.94857422 -1 13 C-0.34 13 0.32 13 1 13 C1 10.03 1 7.06 1 4 C1.66 4.33 2.32 4.66 3 5 C2.93976735 6.60520004 2.85091401 8.20934327 2.75 9.8125 C2.68039063 11.15248047 2.68039063 11.15248047 2.609375 12.51953125 C2 15 2 15 0.09375 16.78125 C-1.96509963 17.97968486 -3.66519666 18.58307083 -6 19 C-6 18.01 -6 17.02 -6 16 C-6.66 15.67 -7.32 15.34 -8 15 C-6.35 14.34 -4.7 13.68 -3 13 C-3.061875 11.783125 -3.12375 10.56625 -3.1875 9.3125 C-3.20822824 5.42249954 -2.37275814 3.16367751 0 0 Z " fill="#00ffcc" transform="translate(172,74)"/>
<path d="M0 0 C1.6065676 0.25620684 3.2102483 0.53055871 4.8125 0.8125 C5.70582031 0.96332031 6.59914063 1.11414062 7.51953125 1.26953125 C10.18321256 2.05395393 11.25690322 2.88627799 13 5 C12.01 5 11.02 5 10 5 C10 5.66 10 6.32 10 7 C6.93596674 6.55156105 3.87413721 6.08949346 0.8125 5.625 C-0.05181641 5.49867187 -0.91613281 5.37234375 -1.80664062 5.2421875 C-6.12041829 4.58107215 -10.02081745 3.89484883 -14 2 C-10.58860997 0.90348177 -7.79344419 1.05784527 -4.25 1.4375 C-3.26515625 1.53933594 -2.2803125 1.64117187 -1.265625 1.74609375 C-0.14414063 1.87177734 -0.14414063 1.87177734 1 2 C0.67 1.34 0.34 0.68 0 0 Z " fill="#00ffcc" transform="translate(116,51)"/>
<path d="M0 0 C0.67546875 0.144375 1.3509375 0.28875 2.046875 0.4375 C2.93890625 0.623125 3.8309375 0.80875 4.75 1 C5.63171875 1.185625 6.5134375 1.37125 7.421875 1.5625 C10.22143965 2.11153675 10.22143965 2.11153675 14 2 C13.67 3.65 13.34 5.3 13 7 C5.71070615 7.36446469 5.71070615 7.36446469 2.5625 5.75 C0.82100687 3.7995277 0.53446781 2.51147981 0 0 Z " fill="#00ffcc" transform="translate(125,55)"/>
<path d="M0 0 C0 1.65 0 3.3 0 5 C1.32 5.33 2.64 5.66 4 6 C1.03 6.66 -1.94 7.32 -5 8 C-4.67 6.35 -4.34 4.7 -4 3 C-6.31 3 -8.62 3 -11 3 C-11 2.01 -11 1.02 -11 0 C-3.57142857 -1.28571429 -3.57142857 -1.28571429 0 0 Z " fill="#00ffcc" transform="translate(154,52)"/>
<path d="M0 0 C0.33 1.32 0.66 2.64 1 4 C0.34 4 -0.32 4 -1 4 C-1 3.01 -1 2.02 -1 1 C-1.99 1.495 -1.99 1.495 -3 2 C-3 5.96 -3 9.92 -3 14 C-3.33 14 -3.66 14 -4 14 C-4 11.03 -4 8.06 -4 5 C-4.886875 5.495 -5.77375 5.99 -6.6875 6.5 C-9.87586238 7.94378674 -11.58187546 8.30159922 -15 8 C-13.68 7.67 -12.36 7.34 -11 7 C-11.33 5.68 -11.66 4.36 -12 3 C-7.77050005 0.58314288 -4.87664009 -0.34833144 0 0 Z " fill="#00ffcc" transform="translate(99,31)"/>
<path d="M0 0 C0 0.66 0 1.32 0 2 C-0.99 2.495 -0.99 2.495 -2 3 C-1.34 3.66 -0.68 4.32 0 5 C-4.95 7.475 -4.95 7.475 -10 10 C-10 9.01 -10 8.02 -10 7 C-11.32 7.33 -12.64 7.66 -14 8 C-11.72402354 5.50447597 -9.39278822 3.93377014 -6.4375 2.3125 C-5.65246094 1.87550781 -4.86742188 1.43851563 -4.05859375 0.98828125 C-2 0 -2 0 0 0 Z " fill="#00ffcc" transform="translate(105,138)"/>
<path d="M0 0 C0 2 0 4 0 6 C0.66 5.67 1.32 5.34 2 5 C1.8125 7.8125 1.8125 7.8125 1 11 C-2.29363353 13.74469461 -4.76464012 14.36303085 -9 14 C-8.34 13.01 -7.68 12.02 -7 11 C-7 10.34 -7 9.68 -7 9 C-6.38125 8.79375 -5.7625 8.5875 -5.125 8.375 C-2.15232982 6.45150753 -1.92018084 4.32680765 -1 1 C-0.67 0.67 -0.34 0.34 0 0 Z " fill="#00ffcc" transform="translate(161,46)"/>
<path d="M0 0 C-1.34306784 4.02920351 -3.39014203 4.8706069 -6.921875 6.9921875 C-9.40754338 8.19764322 -11.27152974 8.42632348 -14 8 C-13.67 7.34 -13.34 6.68 -13 6 C-12.34 6 -11.68 6 -11 6 C-10.95875 5.38125 -10.9175 4.7625 -10.875 4.125 C-10 2 -10 2 -7.1875 0.75 C-4 0 -4 0 0 0 Z " fill="#00ffcc" transform="translate(116,134)"/>
<path d="M0 0 C2.58160408 1.00546685 3.8007222 1.68462642 5.30078125 4.05859375 C5.63464844 4.84363281 5.96851563 5.62867187 6.3125 6.4375 C6.65925781 7.21996094 7.00601562 8.00242187 7.36328125 8.80859375 C8 11 8 11 7 14 C6.01 12.68 5.02 11.36 4 10 C3.01 10.495 3.01 10.495 2 11 C1.731875 9.865625 1.46375 8.73125 1.1875 7.5625 C0.795625 6.386875 0.40375 5.21125 0 4 C-0.99 3.67 -1.98 3.34 -3 3 C-2.01 2.01 -1.02 1.02 0 0 Z " fill="#00ffcc" transform="translate(20,103)"/>
<path d="M0 0 C1.32 0.33 2.64 0.66 4 1 C3.67 3.31 3.34 5.62 3 8 C2.34 8 1.68 8 1 8 C0.67 9.98 0.34 11.96 0 14 C-0.66 14 -1.32 14 -2 14 C-2.1799928 8.78020872 -1.97094808 4.92737019 0 0 Z " fill="#00ffcc" transform="translate(36,71)"/>
<path d="M0 0 C0.33 0 0.66 0 1 0 C1.34025361 3.66835926 1.36623402 5.46536373 -0.75 8.5546875 C-1.4925 9.32039063 -2.235 10.08609375 -3 10.875 C-3.7425 11.65617187 -4.485 12.43734375 -5.25 13.2421875 C-6.11625 14.11230469 -6.11625 14.11230469 -7 15 C-7.33 13.68 -7.66 12.36 -8 11 C-7.01 11 -6.02 11 -5 11 C-5.99 10.34 -6.98 9.68 -8 9 C-6.68 7.02 -5.36 5.04 -4 3 C-3.67 3.99 -3.34 4.98 -3 6 C-2.34 6 -1.68 6 -1 6 C-0.67 4.02 -0.34 2.04 0 0 Z " fill="#00ffcc" transform="translate(37,79)"/>
<path d="M0 0 C0.33 0.66 0.66 1.32 1 2 C0.01 2 -0.98 2 -2 2 C-1.87625 3.1446875 -1.87625 3.1446875 -1.75 4.3125 C-2 7 -2 7 -3.6875 8.8125 C-6.34230436 10.17577792 -8.05574183 10.24535485 -11 10 C-10.34 9.67 -9.68 9.34 -9 9 C-8.896875 8.401875 -8.79375 7.80375 -8.6875 7.1875 C-7.68177215 3.98745686 -5.70594302 2.86838923 -3 1 C-2.01 0.67 -1.02 0.34 0 0 Z " fill="#00ffcc" transform="translate(31,88)"/>
<path d="M0 0 C4.95839497 4.79844675 4.95839497 4.79844675 5.09765625 8.8203125 C5.08605469 9.91085938 5.07445312 11.00140625 5.0625 12.125 C5.05347656 13.22070312 5.04445313 14.31640625 5.03515625 15.4453125 C5.02355469 16.28835937 5.01195312 17.13140625 5 18 C4.67 18 4.34 18 4 18 C4 16.35 4 14.7 4 13 C3.34 13 2.68 13 2 13 C1.66451233 11.20873548 1.33167645 9.41697413 1 7.625 C0.814375 6.62726563 0.62875 5.62953125 0.4375 4.6015625 C0 2 0 2 0 0 Z " fill="#00ffcc" transform="translate(23,111)"/>
<path d="M0 0 C0.66 0 1.32 0 2 0 C2.33 0.99 2.66 1.98 3 3 C4.65 3.33 6.3 3.66 8 4 C8.33 5.32 8.66 6.64 9 8 C1.25 7.25 1.25 7.25 -1 5 C-0.625 2.375 -0.625 2.375 0 0 Z " fill="#00ffcc" transform="translate(135,103)"/>
<path d="M0 0 C2.39706699 0.28342679 4.79231083 0.57643688 7.1875 0.875 C7.86103516 0.95363281 8.53457031 1.03226563 9.22851562 1.11328125 C13.10327484 1.60471413 16.45084723 2.35980901 20 4 C20 4.33 20 4.66 20 5 C17.60325733 4.88543872 15.20818782 4.75871281 12.8125 4.625 C12.13896484 4.5940625 11.46542969 4.563125 10.77148438 4.53125 C6.80321025 4.29896078 3.59270121 3.71612524 0 2 C0 1.34 0 0.68 0 0 Z " fill="#00ffcc" transform="translate(101,49)"/>
<path d="M0 0 C0 0.66 0 1.32 0 2 C2.31 2 4.62 2 7 2 C4.35384998 4.17362323 2.35837336 5.34999225 -1 6 C-1.99 6.33 -2.98 6.66 -4 7 C-4 6.01 -4 5.02 -4 4 C-4.66 3.67 -5.32 3.34 -6 3 C-2.25 0 -2.25 0 0 0 Z " fill="#00ffcc" transform="translate(143,53)"/>
<path d="M0 0 C1.32 0.66 2.64 1.32 4 2 C3.67 2.66 3.34 3.32 3 4 C2.34 4 1.68 4 1 4 C1 4.99 1 5.98 1 7 C0.01 7.495 0.01 7.495 -1 8 C-1 7.01 -1 6.02 -1 5 C-1.99 5.66 -2.98 6.32 -4 7 C-6.33199388 7.07905064 -8.66832622 7.08798769 -11 7 C-11 6.34 -11 5.68 -11 5 C-10.113125 5.103125 -9.22625 5.20625 -8.3125 5.3125 C-3.99315142 4.90501428 -2.74357025 3.2277297 0 0 Z " fill="#00ffcc" transform="translate(68,157)"/>
<path d="M0 0 C1 3 1 3 0.4375 4.875 C-0.15474787 7.75163253 0.77089956 9.39719908 2 12 C1.01 12 0.02 12 -1 12 C-1.33 12.66 -1.66 13.32 -2 14 C-4.70582788 10.16674383 -5.32613618 7.67461851 -5 3 C-4.67 3 -4.34 3 -4 3 C-4 4.65 -4 6.3 -4 8 C-3.34 8 -2.68 8 -2 8 C-1.7834375 6.576875 -1.7834375 6.576875 -1.5625 5.125 C-1 2 -1 2 0 0 Z " fill="#00ffcc" transform="translate(28,131)"/>
<path d="M0 0 C0.99 0.33 1.98 0.66 3 1 C3.9765625 7.0546875 3.9765625 7.0546875 4 9 C3.34 9.66 2.68 10.32 2 11 C1.67 10.01 1.34 9.02 1 8 C-0.98 8.99 -0.98 8.99 -3 10 C-2.67 7.69 -2.34 5.38 -2 3 C-1.01 3 -0.02 3 1 3 C0.67 2.01 0.34 1.02 0 0 Z " fill="#00ffcc" transform="translate(143,108)"/>
<path d="M0 0 C5.94 0 11.88 0 18 0 C18 0.66 18 1.32 18 2 C15.93906592 2.223293 13.8761161 2.42802887 11.8125 2.625 C10.66394531 2.74101563 9.51539063 2.85703125 8.33203125 2.9765625 C4.96669584 3.00023426 2.98778294 2.47419799 0 1 C0 0.67 0 0.34 0 0 Z " fill="#00ffcc" transform="translate(138,101)"/>
<path d="M0 0 C0.66 0 1.32 0 2 0 C1.67 1.65 1.34 3.3 1 5 C0.34 5 -0.32 5 -1 5 C-1 7.97 -1 10.94 -1 14 C-1.66 14 -2.32 14 -3 14 C-3.08153933 12.41753293 -3.13943557 10.83383727 -3.1875 9.25 C-3.22230469 8.36828125 -3.25710937 7.4865625 -3.29296875 6.578125 C-2.94589665 3.52389051 -2.11745198 2.19435701 0 0 Z " fill="#00ffcc" transform="translate(174,73)"/>
<path d="M0 0 C1.98 0 3.96 0 6 0 C6.33 0.99 6.66 1.98 7 3 C5.35 3 3.7 3 2 3 C1.71125 3.639375 1.4225 4.27875 1.125 4.9375 C0 7 0 7 -2 8 C-1.47731534 5.23723823 -0.89130413 2.6739124 0 0 Z " fill="#00ffcc" transform="translate(162,45)"/>
<path d="M0 0 C2 3 2 3 1.625 5.6875 C1.41875 6.450625 1.2125 7.21375 1 8 C-1.64 8 -4.28 8 -7 8 C-7 7.34 -7 6.68 -7 6 C-5.5459375 5.62875 -5.5459375 5.62875 -4.0625 5.25 C-2.5465625 4.63125 -2.5465625 4.63125 -1 4 C-0.03122943 1.96756452 -0.03122943 1.96756452 0 0 Z " fill="#00ffcc" transform="translate(143,113)"/>
<path d="M0 0 C0.33 0.66 0.66 1.32 1 2 C1.99 2 2.98 2 4 2 C2.63016497 5.16115776 2.0109362 5.9927092 -1 8 C-1 7.34 -1 6.68 -1 6 C-2.32 5.67 -3.64 5.34 -5 5 C-3.35 3.35 -1.7 1.7 0 0 Z " fill="#00ffcc" transform="translate(81,156)"/>
<path d="M0 0 C4.67692308 1.47692308 4.67692308 1.47692308 6.3125 4.125 C6.539375 4.74375 6.76625 5.3625 7 6 C6.01 5.67 5.02 5.34 4 5 C4.33 6.32 4.66 7.64 5 9 C4.34 8.67 3.68 8.34 3 8 C3 7.34 3 6.68 3 6 C1.68 5.34 0.36 4.68 -1 4 C-0.67 2.68 -0.34 1.36 0 0 Z " fill="#00ffcc" transform="translate(41,153)"/>
<path d="M0 0 C0.66 0.33 1.32 0.66 2 1 C1.67 1.66 1.34 2.32 1 3 C2.32 3.33 3.64 3.66 5 4 C3.02 4.66 1.04 5.32 -1 6 C-1 5.34 -1 4.68 -1 4 C-3.31 4.66 -5.62 5.32 -8 6 C-5.63404067 3.38499232 -3.13950774 1.61000397 0 0 Z " fill="#00ffcc" transform="translate(130,122)"/>
<path d="M0 0 C0.66 0 1.32 0 2 0 C2.144375 0.94875 2.28875 1.8975 2.4375 2.875 C2.82935399 5.8934494 2.82935399 5.8934494 4 8 C4.66 8.33 5.32 8.66 6 9 C5.01 9.33 4.02 9.66 3 10 C3.33 10.66 3.66 11.32 4 12 C2.68 11.34 1.36 10.68 0 10 C0 6.7 0 3.4 0 0 Z " fill="#00ffcc" transform="translate(177,55)"/>
<path d="M0 0 C0.99 0.66 1.98 1.32 3 2 C3.1875 5.625 3.1875 5.625 3 9 C2.01 9.33 1.02 9.66 0 10 C0 7.69 0 5.38 0 3 C-0.66 2.67 -1.32 2.34 -2 2 C-1.34 2 -0.68 2 0 2 C0 1.34 0 0.68 0 0 Z " fill="#00ffcc" transform="translate(179,52)"/>
<path d="M0 0 C0.66 0.33 1.32 0.66 2 1 C1.67 1.66 1.34 2.32 1 3 C1.66 3 2.32 3 3 3 C3 3.66 3 4.32 3 5 C1.68 5.33 0.36 5.66 -1 6 C-1 5.34 -1 4.68 -1 4 C-3.31 4 -5.62 4 -8 4 C-6.66666667 3.33333333 -5.33333333 2.66666667 -4 2 C-3.29875 1.608125 -2.5975 1.21625 -1.875 0.8125 C-1.25625 0.544375 -0.6375 0.27625 0 0 Z " fill="#00ffcc" transform="translate(157,97)"/>
<path d="M0 0 C0.99 0 1.98 0 3 0 C3 0.66 3 1.32 3 2 C4.65 2.33 6.3 2.66 8 3 C8 5.64 8 8.28 8 11 C6.79371992 8.66785852 5.8345262 6.50357861 5 4 C2.49552484 2.78130071 2.49552484 2.78130071 0 2 C0 1.34 0 0.68 0 0 Z " fill="#00ffcc" transform="translate(43,52)"/>
<path d="M0 0 C2 3 2 3 2 5 C4.475 5.99 4.475 5.99 7 7 C6.01 7.33 5.02 7.66 4 8 C3.34 7.67 2.68 7.34 2 7 C2.33 7.99 2.66 8.98 3 10 C1.68 9.34 0.36 8.68 -1 8 C-0.67 5.36 -0.34 2.72 0 0 Z " fill="#00ffcc" transform="translate(99,42)"/>
<path d="M0 0 C1.32 0.66 2.64 1.32 4 2 C4 2.66 4 3.32 4 4 C6.31 4 8.62 4 11 4 C8 6 8 6 5 5.875 C1.60674592 4.88530089 0.74042439 3.99739756 -1 1 C-0.67 0.67 -0.34 0.34 0 0 Z " fill="#00ffcc" transform="translate(68,159)"/>
<path d="M0 0 C1.98 0 3.96 0 6 0 C5.01 0.33 4.02 0.66 3 1 C1.77030122 4.51190809 1.77030122 4.51190809 1 8 C0.34 7.67 -0.32 7.34 -1 7 C-0.67 4.69 -0.34 2.38 0 0 Z " fill="#00ffcc" transform="translate(49,40)"/>
<path d="M0 0 C3 1 3 1 5 4 C8.06556598 4.73343428 8.06556598 4.73343428 11 5 C11 5.33 11 5.66 11 6 C8.03 6 5.06 6 2 6 C1.34 4.02 0.68 2.04 0 0 Z " fill="#00ffcc" transform="translate(45,158)"/>
<path d="M0 0 C1.32 0 2.64 0 4 0 C3.67 1.65 3.34 3.3 3 5 C1.68 5 0.36 5 -1 5 C-0.67 3.35 -0.34 1.7 0 0 Z " fill="#00ffcc" transform="translate(83,153)"/>
<path d="M0 0 C0.33 0 0.66 0 1 0 C0.67 2.97 0.34 5.94 0 9 C-0.66 9 -1.32 9 -2 9 C-2.125 5.625 -2.125 5.625 -2 2 C-1.34 1.34 -0.68 0.68 0 0 Z " fill="#00ffcc" transform="translate(26,130)"/>
<path d="M0 0 C0.66 0 1.32 0 2 0 C2 0.99 2 1.98 2 3 C3.32 3.33 4.64 3.66 6 4 C5.67 4.99 5.34 5.98 5 7 C3.68 6.67 2.36 6.34 1 6 C0.67 4.02 0.34 2.04 0 0 Z " fill="#00ffcc" transform="translate(14,99)"/>
<path d="M0 0 C0.99 1.32 1.98 2.64 3 4 C2.67 4.66 2.34 5.32 2 6 C0.35 6 -1.3 6 -3 6 C-3 3 -3 3 -1.5 1.3125 C-0.7575 0.6628125 -0.7575 0.6628125 0 0 Z " fill="#00ffcc" transform="translate(47,44)"/>
<path d="M0 0 C0 0.99 0 1.98 0 3 C-2.31 3.33 -4.62 3.66 -7 4 C-7 3.34 -7 2.68 -7 2 C-2.25 0 -2.25 0 0 0 Z " fill="#00ffcc" transform="translate(129,126)"/>
<path d="M0 0 C0.66 0.66 1.32 1.32 2 2 C1.75 4.0625 1.75 4.0625 1 6 C0.01 6.495 0.01 6.495 -1 7 C-1.66 6.67 -2.32 6.34 -3 6 C-2 4 -1 2 0 0 Z " fill="#00ffcc" transform="translate(161,94)"/>
<path d="M0 0 C0.99 0 1.98 0 3 0 C2.67 2.31 2.34 4.62 2 7 C1.34 7 0.68 7 0 7 C0 4.69 0 2.38 0 0 Z " fill="#00ffcc" transform="translate(34,78)"/>
<path d="M0 0 C0.66 0 1.32 0 2 0 C2 1.65 2 3.3 2 5 C-0.64 4.67 -3.28 4.34 -6 4 C-5.01 3.34 -4.02 2.68 -3 2 C-2.01 2.33 -1.02 2.66 0 3 C0 2.01 0 1.02 0 0 Z " fill="#00ffcc" transform="translate(181,67)"/>
<path d="M0 0 C1.32 0.66 2.64 1.32 4 2 C3.01 2.495 3.01 2.495 2 3 C2 3.66 2 4.32 2 5 C-0.31 4.34 -2.62 3.68 -5 3 C-5 2.67 -5 2.34 -5 2 C-3.35 2 -1.7 2 0 2 C0 1.34 0 0.68 0 0 Z " fill="#00ffcc" transform="translate(169,46)"/>
<path d="M0 0 C-0.33 0.66 -0.66 1.32 -1 2 C-4.3 1.67 -7.6 1.34 -11 1 C-11 0.67 -11 0.34 -11 0 C-3.57142857 -1.28571429 -3.57142857 -1.28571429 0 0 Z " fill="#00ffcc" transform="translate(154,52)"/>
<path d="M0 0 C1.98 0 3.96 0 6 0 C6.33 0.66 6.66 1.32 7 2 C6.01 2 5.02 2 4 2 C4 2.66 4 3.32 4 4 C2.35 3.67 0.7 3.34 -1 3 C-0.67 2.01 -0.34 1.02 0 0 Z " fill="#00ffcc" transform="translate(122,54)"/>
</svg>
