<?xml version="1.0" encoding="UTF-8"?>
<svg version="1.1" xmlns="http://www.w3.org/2000/svg" width="198" height="198">
<path d="M0 0 C65.34 0 130.68 0 198 0 C198 65.34 198 130.68 198 198 C132.66 198 67.32 198 0 198 C0 132.66 0 67.32 0 0 Z " fill="#000000" transform="translate(0,0)"/>
<path d="M0 0 C0.763125 0.20625 1.52625 0.4125 2.3125 0.625 C2.32667969 1.43324219 2.34085937 2.24148437 2.35546875 3.07421875 C2.38936455 10.05047244 2.38936455 10.05047244 5.75 15.8125 C10.68113893 19.30037875 15.65157775 19.29229106 21.515625 19.9296875 C26.54683441 20.85104066 30.09500746 22.81333831 34.3125 25.625 C38.46702652 25.46822541 40.78403772 25.00411425 44.1875 22.5625 C48.33336206 19.99206552 51.56456427 20.24516514 56.3125 20.625 C56.6425 21.945 56.9725 23.265 57.3125 24.625 C60.7734827 22.98558714 62.0864837 22.20788415 63.5 18.5625 C63.768125 17.593125 64.03625 16.62375 64.3125 15.625 C64.9725 14.965 65.6325 14.305 66.3125 13.625 C70.24530197 13.9745824 73.79417393 14.81557516 77.3125 16.625 C77.6425 17.615 77.9725 18.605 78.3125 19.625 C79.09625 19.728125 79.88 19.83125 80.6875 19.9375 C83.3125 20.625 83.3125 20.625 85.3125 23.625 C85.24818042 25.65106673 85.18373477 27.67713022 85.1171875 29.703125 C85.41251614 32.60915878 87.21845133 33.72726839 89.3125 35.625 C89.6875 38.25 89.6875 38.25 89.3125 40.625 C88.3225 41.615 88.3225 41.615 87.3125 42.625 C83.6875 42.25 83.6875 42.25 80.3125 41.625 C78.75032243 44.85350031 78.15489638 47.65380822 77.875 51.1875 C77.51803571 54.82974579 77.15174936 57.08995593 74.3125 59.625 C73.508125 59.91375 72.70375 60.2025 71.875 60.5 C68.3476465 62.04859422 67.36331128 64.42060737 65.3125 67.625 C60.64167401 72.16958745 55.62649156 73.70336455 49.1875 73.8125 C46.08034129 73.66215361 43.31873172 73.37655793 40.3125 72.625 C40.3125 73.285 40.3125 73.945 40.3125 74.625 C41.7046875 75.0271875 41.7046875 75.0271875 43.125 75.4375 C47.51722441 77.0738189 47.51722441 77.0738189 49.3125 79.625 C50.3125 82 50.3125 82 50.3125 84.625 C45.92744106 90.21838629 39.58611363 93.04852967 33.4375 96.375 C31.17743971 97.6180738 28.91832119 98.86286143 26.66015625 100.109375 C25.02264404 101.01139648 25.02264404 101.01139648 23.35205078 101.93164062 C18.29619414 104.748301 13.34404252 107.72253631 8.41015625 110.74609375 C6.43959508 111.94135217 4.44880095 113.10431196 2.43359375 114.22265625 C-5.02963408 118.3936107 -9.61880569 123.63801505 -14.5 130.5625 C-16.6875 133.625 -16.6875 133.625 -18.6875 134.625 C-24.11057692 135.08653846 -24.11057692 135.08653846 -26.5625 133.125 C-26.93375 132.63 -27.305 132.135 -27.6875 131.625 C-28.739375 132.615 -28.739375 132.615 -29.8125 133.625 C-33.30593446 136.05521528 -34.50066541 136.09898127 -38.6875 135.625 C-39.48929688 135.5425 -40.29109375 135.46 -41.1171875 135.375 C-45.55520879 134.74287827 -48.67649053 134.28841419 -51.5 130.625 C-52.221875 129.635 -52.94375 128.645 -53.6875 127.625 C-55.34333225 126.93186092 -57.00860979 126.26025576 -58.6875 125.625 C-58.9865625 125.00496094 -59.285625 124.38492188 -59.59375 123.74609375 C-60.88919765 121.23385064 -62.16215375 120.36361405 -64.5 118.8125 C-68.40109361 115.97922399 -71.75720581 113.14208437 -73.6875 108.625 C-73.56339963 104.90198889 -72.85840628 102.13771885 -71.6875 98.625 C-70.79834341 90.77078342 -73.19384577 83.63825144 -76.6875 76.625 C-78.95072921 74.2168119 -80.70870516 73.14360129 -83.6875 71.625 C-83.4765625 69.27734375 -83.4765625 69.27734375 -82.6875 66.625 C-80.6484375 65.25390625 -80.6484375 65.25390625 -78.0625 64.1875 C-71.82351418 61.34509672 -66.47815263 58.10330074 -63.6875 51.625 C-63.00965008 49.29489091 -62.34333207 46.96140176 -61.6875 44.625 C-59.96762692 38.99714306 -56.34314439 36.5251521 -51.90234375 32.90625 C-49.47251988 30.40357426 -48.98255531 29.04523302 -48.6875 25.625 C-49.656875 25.233125 -50.62625 24.84125 -51.625 24.4375 C-54.6875 22.625 -54.6875 22.625 -55.5625 19.9375 C-55.60375 19.174375 -55.645 18.41125 -55.6875 17.625 C-54.759375 17.068125 -53.83125 16.51125 -52.875 15.9375 C-49.72493273 13.65215708 -48.43360146 12.02530285 -46.6875 8.625 C-46.3575 8.295 -46.0275 7.965 -45.6875 7.625 C-39.30903603 8.10639351 -39.30903603 8.10639351 -36.84765625 10.16015625 C-33.93463533 12.1355321 -31.91807142 11.92599689 -28.4375 11.8125 C-27.35984375 11.78542969 -26.2821875 11.75835937 -25.171875 11.73046875 C-24.35203125 11.69566406 -23.5321875 11.66085938 -22.6875 11.625 C-22.3575 9.975 -22.0275 8.325 -21.6875 6.625 C-20.56730469 6.28726563 -19.44710937 5.94953125 -18.29296875 5.6015625 C-16.82023364 5.15129954 -15.34758169 4.70076447 -13.875 4.25 C-13.13701172 4.02828125 -12.39902344 3.8065625 -11.63867188 3.578125 C-10.57036133 3.24941406 -10.57036133 3.24941406 -9.48046875 2.9140625 C-8.8258667 2.71506348 -8.17126465 2.51606445 -7.49682617 2.31103516 C-1.02468904 -0.14297987 -1.02468904 -0.14297987 0 0 Z " fill="#010101" transform="translate(96.6875,31.375)"/>
<path d="M0 0 C0.763125 0.20625 1.52625 0.4125 2.3125 0.625 C2.32667969 1.43324219 2.34085937 2.24148437 2.35546875 3.07421875 C2.38936455 10.05047244 2.38936455 10.05047244 5.75 15.8125 C10.68113893 19.30037875 15.65157775 19.29229106 21.515625 19.9296875 C26.54683441 20.85104066 30.09500746 22.81333831 34.3125 25.625 C38.46702652 25.46822541 40.78403772 25.00411425 44.1875 22.5625 C48.33336206 19.99206552 51.56456427 20.24516514 56.3125 20.625 C56.6425 21.945 56.9725 23.265 57.3125 24.625 C60.7734827 22.98558714 62.0864837 22.20788415 63.5 18.5625 C63.768125 17.593125 64.03625 16.62375 64.3125 15.625 C64.9725 14.965 65.6325 14.305 66.3125 13.625 C70.24530197 13.9745824 73.79417393 14.81557516 77.3125 16.625 C77.6425 17.615 77.9725 18.605 78.3125 19.625 C79.09625 19.728125 79.88 19.83125 80.6875 19.9375 C83.3125 20.625 83.3125 20.625 85.3125 23.625 C85.24818042 25.65106673 85.18373477 27.67713022 85.1171875 29.703125 C85.41251614 32.60915878 87.21845133 33.72726839 89.3125 35.625 C89.6875 38.25 89.6875 38.25 89.3125 40.625 C88.3225 41.615 88.3225 41.615 87.3125 42.625 C83.6875 42.25 83.6875 42.25 80.3125 41.625 C78.75032243 44.85350031 78.15489638 47.65380822 77.875 51.1875 C77.51803571 54.82974579 77.15174936 57.08995593 74.3125 59.625 C73.508125 59.91375 72.70375 60.2025 71.875 60.5 C68.3476465 62.04859422 67.36331128 64.42060737 65.3125 67.625 C60.64167401 72.16958745 55.62649156 73.70336455 49.1875 73.8125 C46.08034129 73.66215361 43.31873172 73.37655793 40.3125 72.625 C40.3125 73.285 40.3125 73.945 40.3125 74.625 C41.7046875 75.0271875 41.7046875 75.0271875 43.125 75.4375 C47.51722441 77.0738189 47.51722441 77.0738189 49.3125 79.625 C50.3125 82 50.3125 82 50.3125 84.625 C45.92744106 90.21838629 39.58611363 93.04852967 33.4375 96.375 C31.17743971 97.6180738 28.91832119 98.86286143 26.66015625 100.109375 C25.02264404 101.01139648 25.02264404 101.01139648 23.35205078 101.93164062 C18.29619414 104.748301 13.34404252 107.72253631 8.41015625 110.74609375 C6.43959508 111.94135217 4.44880095 113.10431196 2.43359375 114.22265625 C-5.02963408 118.3936107 -9.61880569 123.63801505 -14.5 130.5625 C-16.6875 133.625 -16.6875 133.625 -18.6875 134.625 C-24.11057692 135.08653846 -24.11057692 135.08653846 -26.5625 133.125 C-26.93375 132.63 -27.305 132.135 -27.6875 131.625 C-28.739375 132.615 -28.739375 132.615 -29.8125 133.625 C-33.30593446 136.05521528 -34.50066541 136.09898127 -38.6875 135.625 C-39.48929688 135.5425 -40.29109375 135.46 -41.1171875 135.375 C-45.55520879 134.74287827 -48.67649053 134.28841419 -51.5 130.625 C-52.221875 129.635 -52.94375 128.645 -53.6875 127.625 C-55.34333225 126.93186092 -57.00860979 126.26025576 -58.6875 125.625 C-58.9865625 125.00496094 -59.285625 124.38492188 -59.59375 123.74609375 C-60.88919765 121.23385064 -62.16215375 120.36361405 -64.5 118.8125 C-68.40109361 115.97922399 -71.75720581 113.14208437 -73.6875 108.625 C-73.56339963 104.90198889 -72.85840628 102.13771885 -71.6875 98.625 C-70.79834341 90.77078342 -73.19384577 83.63825144 -76.6875 76.625 C-78.95072921 74.2168119 -80.70870516 73.14360129 -83.6875 71.625 C-83.4765625 69.27734375 -83.4765625 69.27734375 -82.6875 66.625 C-80.6484375 65.25390625 -80.6484375 65.25390625 -78.0625 64.1875 C-71.82351418 61.34509672 -66.47815263 58.10330074 -63.6875 51.625 C-63.00965008 49.29489091 -62.34333207 46.96140176 -61.6875 44.625 C-59.96762692 38.99714306 -56.34314439 36.5251521 -51.90234375 32.90625 C-49.47251988 30.40357426 -48.98255531 29.04523302 -48.6875 25.625 C-49.656875 25.233125 -50.62625 24.84125 -51.625 24.4375 C-54.6875 22.625 -54.6875 22.625 -55.5625 19.9375 C-55.60375 19.174375 -55.645 18.41125 -55.6875 17.625 C-54.759375 17.068125 -53.83125 16.51125 -52.875 15.9375 C-49.72493273 13.65215708 -48.43360146 12.02530285 -46.6875 8.625 C-46.3575 8.295 -46.0275 7.965 -45.6875 7.625 C-39.30903603 8.10639351 -39.30903603 8.10639351 -36.84765625 10.16015625 C-33.93463533 12.1355321 -31.91807142 11.92599689 -28.4375 11.8125 C-27.35984375 11.78542969 -26.2821875 11.75835937 -25.171875 11.73046875 C-24.35203125 11.69566406 -23.5321875 11.66085938 -22.6875 11.625 C-22.3575 9.975 -22.0275 8.325 -21.6875 6.625 C-20.56730469 6.28726563 -19.44710937 5.94953125 -18.29296875 5.6015625 C-16.82023364 5.15129954 -15.34758169 4.70076447 -13.875 4.25 C-13.13701172 4.02828125 -12.39902344 3.8065625 -11.63867188 3.578125 C-10.57036133 3.24941406 -10.57036133 3.24941406 -9.48046875 2.9140625 C-8.8258667 2.71506348 -8.17126465 2.51606445 -7.49682617 2.31103516 C-1.02468904 -0.14297987 -1.02468904 -0.14297987 0 0 Z M-4.0625 3.9375 C-7.28809237 5.43906886 -9.93710661 6.1725118 -13.375 6.9375 C-17.94263732 8.06112372 -17.94263732 8.06112372 -20.875 11.8125 C-21.143125 12.740625 -21.41125 13.66875 -21.6875 14.625 C-22.51894531 14.61339844 -23.35039063 14.60179687 -24.20703125 14.58984375 C-25.83705078 14.57630859 -25.83705078 14.57630859 -27.5 14.5625 C-29.11841797 14.54509766 -29.11841797 14.54509766 -30.76953125 14.52734375 C-33.75262169 14.48875234 -33.75262169 14.48875234 -36.6875 15.625 C-37.43 14.779375 -38.1725 13.93375 -38.9375 13.0625 C-41.34931637 10.4177154 -41.34931637 10.4177154 -43.875 10.5 C-46.38505677 12.05796627 -46.63124778 13.91835368 -47.6875 16.625 C-49.8125 17.9375 -49.8125 17.9375 -51.6875 18.625 C-51.3575 19.615 -51.0275 20.605 -50.6875 21.625 C-48.67241642 22.35823796 -48.67241642 22.35823796 -46.6875 22.625 C-45.37207539 28.72378683 -45.37207539 28.72378683 -46.5625 32.125 C-48.64422079 34.57408328 -50.48141527 35.84809297 -53.125 37.625 C-58.32271005 41.44783191 -59.19276079 45.46609451 -60.75 51.53515625 C-63.15914166 59.47528565 -69.82097661 63.59247808 -76.6875 67.625 C-78.01346308 68.30620784 -79.34458601 68.97784914 -80.6875 69.625 C-79.924375 70.181875 -79.16125 70.73875 -78.375 71.3125 C-72.2195154 76.60907977 -69.34908756 85.3083867 -68.36328125 93.23046875 C-68.26884193 97.5674127 -68.97099177 100.61981413 -70.6875 104.625 C-69.74901387 111.95124657 -62.07572244 117.26310564 -56.6875 121.625 C-56.1925 122.615 -56.1925 122.615 -55.6875 123.625 C-54.90375 123.893125 -54.12 124.16125 -53.3125 124.4375 C-50.6875 125.625 -50.6875 125.625 -49.5 128.125 C-46.94823313 131.64467844 -44.40077635 131.71343026 -40.2578125 132.4609375 C-37.4954229 132.63726024 -35.34031436 132.40847367 -32.6875 131.625 C-31.32729849 129.65741727 -31.32729849 129.65741727 -30.6875 127.625 C-29.0375 127.625 -27.3875 127.625 -25.6875 127.625 C-25.0275 128.945 -24.3675 130.265 -23.6875 131.625 C-20.22014665 131.35126158 -18.93116721 130.87770786 -16.4765625 128.33203125 C-15.76242188 127.37683594 -15.04828125 126.42164063 -14.3125 125.4375 C-8.34924796 117.51179592 -1.67318642 112.75272488 6.9375 108 C8.797001 106.95595354 10.65637205 105.91167563 12.515625 104.8671875 C13.46759766 104.33577148 14.41957031 103.80435547 15.40039062 103.25683594 C20.18092616 100.57800466 24.93290816 97.84952238 29.6875 95.125 C31.38267576 94.15601075 33.07798111 93.18724814 34.7734375 92.21875 C35.54268555 91.77917969 36.31193359 91.33960937 37.10449219 90.88671875 C40.17382813 89.1328125 43.24316406 87.37890625 46.3125 85.625 C46.98404684 83.34158257 46.98404684 83.34158257 46.3125 80.625 C43.83196058 78.61228161 41.13609938 77.10612914 38.3125 75.625 C38.6425 73.975 38.9725 72.325 39.3125 70.625 C41.6385857 70.24436779 43.97305264 69.91230055 46.3125 69.625 C46.6425 69.955 46.9725 70.285 47.3125 70.625 C52.86701351 70.2419301 57.41024838 69.43925556 62.3125 66.625 C63.96392197 64.6497698 65.38663301 62.6433153 66.7578125 60.46484375 C68.3125 58.625 68.3125 58.625 70.92578125 57.7421875 C71.71339844 57.37351563 72.50101563 57.00484375 73.3125 56.625 C74.20841034 53.9303945 74.20841034 53.9303945 74.375 50.8125 C74.86646989 47.09073257 75.25397828 44.73770849 77 41.375 C80.16912361 38.97674429 82.44316695 39.25294874 86.3125 39.625 C86.3125 38.305 86.3125 36.985 86.3125 35.625 C83.88577433 33.83530974 83.88577433 33.83530974 81.3125 32.625 C81.6425 29.985 81.9725 27.345 82.3125 24.625 C77.46539443 20.6214167 73.50589263 17.91529013 67.3125 16.625 C66.9721875 18.4503125 66.9721875 18.4503125 66.625 20.3125 C65.41158135 23.72335343 64.53718293 24.50935859 61.25390625 26.19921875 C58.90349157 27.05648938 56.53425859 27.86404751 54.1484375 28.6171875 C51.18566593 29.30113554 51.18566593 29.30113554 50.3125 31.625 C49.3225 31.295 48.3325 30.965 47.3125 30.625 C48.54184015 26.93697956 50.25109378 25.90143027 53.3125 23.625 C48.72390933 23.91178692 46.00191742 24.63212036 42.1875 27.25 C38.61878132 29.61770759 38.61878132 29.61770759 35.6875 29.6875 C33.3125 28.625 33.3125 28.625 30.5 26.6875 C25.31732213 23.33400256 20.26654839 22.6608417 14.25 22.25 C9.2871853 21.81412875 6.34194111 20.56313414 2.3125 17.625 C0.26617953 14.45807546 -0.04668253 11.5964446 -0.3125 7.875 C-0.42464844 6.39773437 -0.42464844 6.39773437 -0.5390625 4.890625 C-0.58804688 4.14296875 -0.63703125 3.3953125 -0.6875 2.625 C-1.99388252 2.54438565 -1.99388252 2.54438565 -4.0625 3.9375 Z " fill="#EEEEEE" transform="translate(96.6875,31.375)"/>
<path d="M0 0 C0.99 0.33 1.98 0.66 3 1 C2.34 3.31 1.68 5.62 1 8 C-1.91471364 8.84129235 -4.4708287 9.10918243 -7.5 9.0625 C-8.2528125 9.05347656 -9.005625 9.04445313 -9.78125 9.03515625 C-10.5134375 9.02355469 -11.245625 9.01195312 -12 9 C-13.32 9 -14.64 9 -16 9 C-17.35368596 7.68733482 -18.68799596 6.35432675 -20 5 C-20.99 5 -21.98 5 -23 5 C-23.4125 5.969375 -23.825 6.93875 -24.25 7.9375 C-26 11 -26 11 -28.1875 11.875 C-29.0846875 11.936875 -29.0846875 11.936875 -30 12 C-30 12.66 -30 13.32 -30 14 C-30.66 14 -31.32 14 -32 14 C-32.33 14.66 -32.66 15.32 -33 16 C-33.33 14.35 -33.66 12.7 -34 11 C-33.071875 10.443125 -32.14375 9.88625 -31.1875 9.3125 C-28.03743273 7.02715708 -26.74610146 5.40030285 -25 2 C-24.67 1.67 -24.34 1.34 -24 1 C-17.62153603 1.48139351 -17.62153603 1.48139351 -15.16015625 3.53515625 C-12.24713533 5.5105321 -10.23057142 5.30099689 -6.75 5.1875 C-5.67234375 5.16042969 -4.5946875 5.13335937 -3.484375 5.10546875 C-2.66453125 5.07066406 -1.8446875 5.03585938 -1 5 C-0.67 3.35 -0.34 1.7 0 0 Z " fill="#F0F0F0" transform="translate(75,38)"/>
<path d="M0 0 C0 4.62 0 9.24 0 14 C-0.99 14.495 -0.99 14.495 -2 15 C-3.21693876 12.56612247 -3.31959896 10.58161154 -3.5625 7.875 C-3.68818359 6.50988281 -3.68818359 6.50988281 -3.81640625 5.1171875 C-3.87699219 4.41851562 -3.93757813 3.71984375 -4 3 C-4.763125 3.45375 -5.52625 3.9075 -6.3125 4.375 C-10.89672653 6.70577542 -15.9658162 7.23860209 -21 8 C-21.33 7.01 -21.66 6.02 -22 5 C-21.02417969 4.73445313 -20.04835938 4.46890625 -19.04296875 4.1953125 C-17.75773414 3.83882407 -16.47258216 3.48203761 -15.1875 3.125 C-13.29064453 2.60292969 -13.29064453 2.60292969 -11.35546875 2.0703125 C-2.9901301 -0.59802602 -2.9901301 -0.59802602 0 0 Z " fill="#F3F3F3" transform="translate(99,32)"/>
<path d="M0 0 C0.66 0.33 1.32 0.66 2 1 C1.38153324 10.98077389 1.38153324 10.98077389 -2 14 C-2.804375 14.28875 -3.60875 14.5775 -4.4375 14.875 C-7.9648535 16.42359422 -8.94918872 18.79560737 -11 22 C-13.5 24.4375 -13.5 24.4375 -16 26 C-18.25 25.875 -18.25 25.875 -20 25 C-20.33 24.34 -20.66 23.68 -21 23 C-19.96875 22.67 -18.9375 22.34 -17.875 22 C-13.6580561 20.24860798 -11.92996359 17.42341429 -9.421875 13.7421875 C-8 12 -8 12 -5.125 11 C-4.42375 11 -3.7225 11 -3 11 C-3 8.03 -3 5.06 -3 2 C-2.67 2 -2.34 2 -2 2 C-1.67 3.65 -1.34 5.3 -1 7 C-0.67 4.69 -0.34 2.38 0 0 Z " fill="#ECECEC" transform="translate(173,77)"/>
<path d="M0 0 C0.33 0 0.66 0 1 0 C1.20579599 5.24779767 1.09279765 9.11680547 -1 14 C-0.53960823 17.44574465 0.94521845 19.54708739 3.0625 22.25 C3.88427734 23.30960938 3.88427734 23.30960938 4.72265625 24.390625 C5.14417969 24.92171875 5.56570312 25.4528125 6 26 C5.01 26.66 4.02 27.32 3 28 C-0.44252649 24.53949687 -3.45204666 21.39728103 -5.25 16.8125 C-4.85357276 10.76698463 -2.39696885 5.51551657 0 0 Z " fill="#E7E7E7" transform="translate(28,122)"/>
<path d="M0 0 C0.33 0.33 0.66 0.66 1 1 C2.51928038 1.07179964 4.04167482 1.08392007 5.5625 1.0625 C6.80193359 1.04896484 6.80193359 1.04896484 8.06640625 1.03515625 C9.02353516 1.01775391 9.02353516 1.01775391 10 1 C10 1.99 10 2.98 10 4 C4.75881575 5.74706142 -0.68833136 5.32791716 -6 4 C-5.67 5.65 -5.34 7.3 -5 9 C-6.32 8.34 -7.64 7.68 -9 7 C-8.6875 4.625 -8.6875 4.625 -8 2 C-4.77786243 -0.14809171 -3.72224599 -0.29386153 0 0 Z " fill="#F3F3F3" transform="translate(143,100)"/>
<path d="M0 0 C1.9375 0.3125 1.9375 0.3125 4 1 C4.33 1.99 4.66 2.98 5 4 C5.78375 4.103125 6.5675 4.20625 7.375 4.3125 C10 5 10 5 12 8 C12.1953125 10.26171875 12.1953125 10.26171875 12.125 12.6875 C12.10695312 13.49574219 12.08890625 14.30398437 12.0703125 15.13671875 C12.03550781 16.05904297 12.03550781 16.05904297 12 17 C11.34 17.33 10.68 17.66 10 18 C9.01 17.67 8.02 17.34 7 17 C7.33 14.36 7.66 11.72 8 9 C6.89626579 8.20773051 5.79199348 7.41621065 4.6875 6.625 C4.07261719 6.18414062 3.45773438 5.74328125 2.82421875 5.2890625 C1.2347608 4.16589093 -0.38062171 3.07958553 -2 2 C-1.34 2 -0.68 2 0 2 C0 1.34 0 0.68 0 0 Z " fill="#EBEBEB" transform="translate(170,47)"/>
<path d="M0 0 C0.66 0.33 1.32 0.66 2 1 C1.61712558 3.56359397 1.2228978 4.77763418 -0.63671875 6.6328125 C-5.53684067 10.19823455 -9.73446754 13 -16 13 C-15 10 -15 10 -12.890625 8.7890625 C-12.01921875 8.40492187 -11.1478125 8.02078125 -10.25 7.625 C-5.9173215 5.58280626 -3.10275223 3.6198776 0 0 Z " fill="#ECECEC" transform="translate(29,88)"/>
<path d="M0 0 C5.49100742 0.43928059 8.5814698 1.75974452 13 5 C14.3191582 5.69429379 15.64649406 6.37530495 17 7 C17 7.99 17 8.98 17 10 C12.45605706 9.46541848 9.70487688 7.60129653 6 5 C4.6808418 4.30570621 3.35350594 3.62469505 2 3 C2 2.34 2 1.68 2 1 C1.34 0.67 0.68 0.34 0 0 Z " fill="#E7E7E7" transform="translate(118,52)"/>
<path d="M0 0 C0.99 0.33 1.98 0.66 3 1 C3 5.62 3 10.24 3 15 C2.01 15.495 2.01 15.495 1 16 C-0.40741875 13.18516249 -0.38449037 10.56756106 -0.625 7.4375 C-0.72039062 6.26058594 -0.81578125 5.08367188 -0.9140625 3.87109375 C-0.95660156 2.44990234 -0.95660156 2.44990234 -1 1 C-0.67 0.67 -0.34 0.34 0 0 Z " fill="#F9F9F9" transform="translate(96,31)"/>
<path d="M0 0 C0.66 0.33 1.32 0.66 2 1 C1.38065327 10.99497487 1.38065327 10.99497487 -2 14 C-4.1875 14.75 -4.1875 14.75 -6 15 C-6 14.34 -6 13.68 -6 13 C-6.66 12.67 -7.32 12.34 -8 12 C-6.35 11.67 -4.7 11.34 -3 11 C-3 8.03 -3 5.06 -3 2 C-2.67 2 -2.34 2 -2 2 C-1.67 3.65 -1.34 5.3 -1 7 C-0.67 4.69 -0.34 2.38 0 0 Z " fill="#D3D3D3" transform="translate(173,77)"/>
<path d="M0 0 C0.33 0.99 0.66 1.98 1 3 C-0.98 3 -2.96 3 -5 3 C-5.66 4.98 -6.32 6.96 -7 9 C-7.66 8.67 -8.32 8.34 -9 8 C-9.35880399 2.6179402 -9.35880399 2.6179402 -7.875 0.0625 C-5.07329973 -1.52513015 -3.03014356 -0.74070176 0 0 Z " fill="#F1F1F1" transform="translate(169,46)"/>
<path d="M0 0 C0.33 0.66 0.66 1.32 1 2 C0.34 1.67 -0.32 1.34 -1 1 C-0.67 0.67 -0.34 0.34 0 0 Z M-1 2 C-0.67 2.99 -0.34 3.98 0 5 C-1.38481328 5.87191947 -2.78345246 6.72190384 -4.1875 7.5625 C-4.96480469 8.03816406 -5.74210937 8.51382813 -6.54296875 9.00390625 C-9.48360967 10.19605797 -11.00446363 9.88855164 -14 9 C-5.25 2 -5.25 2 -1 2 Z " fill="#E9E9E9" transform="translate(106,137)"/>
<path d="M0 0 C0.99 0.33 1.98 0.66 3 1 C2.34 3.31 1.68 5.62 1 8 C-3.08443115 9.53166168 -6.79455657 8.63081652 -11 8 C-11 7.67 -11 7.34 -11 7 C-7.7 6.34 -4.4 5.68 -1 5 C-0.67 3.35 -0.34 1.7 0 0 Z " fill="#E1E1E1" transform="translate(75,38)"/>
<path d="M0 0 C0.99 0.33 1.98 0.66 3 1 C2.25 2.9375 2.25 2.9375 1 5 C-1.125 5.75 -1.125 5.75 -3 6 C-3 6.66 -3 7.32 -3 8 C-3.66 8 -4.32 8 -5 8 C-5.33 8.66 -5.66 9.32 -6 10 C-6.33 8.35 -6.66 6.7 -7 5 C-5.90554162 4.13342884 -4.79902219 3.28207276 -3.6875 2.4375 C-3.07261719 1.96183594 -2.45773438 1.48617187 -1.82421875 0.99609375 C-1.22222656 0.66738281 -0.62023438 0.33867188 0 0 Z " fill="#EBEBEB" transform="translate(48,44)"/>
<path d="M0 0 C6.57692308 2.43589744 6.57692308 2.43589744 8.5 5 C9 7 9 7 8 10 C7.01 10 6.02 10 5 10 C4.87625 9.071875 4.87625 9.071875 4.75 8.125 C4.18741541 5.81562433 4.18741541 5.81562433 1.9375 4.75 C1.298125 4.5025 0.65875 4.255 0 4 C0 2.68 0 1.36 0 0 Z " fill="#E1E1E1" transform="translate(138,106)"/>
<path d="M0 0 C0 2 0 2 -1.64453125 3.7265625 C-2.35996094 4.35304687 -3.07539062 4.97953125 -3.8125 5.625 C-4.87404297 6.57246094 -4.87404297 6.57246094 -5.95703125 7.5390625 C-8 9 -8 9 -11 9 C-8.823805 3.65843044 -5.92169235 0 0 0 Z " fill="#FAFAFA" transform="translate(95,146)"/>
<path d="M0 0 C0.99 0.33 1.98 0.66 3 1 C4.72795352 1.06802967 6.45835365 1.08495645 8.1875 1.0625 C9.08855469 1.05347656 9.98960937 1.04445313 10.91796875 1.03515625 C11.94857422 1.01775391 11.94857422 1.01775391 13 1 C12 3 12 3 9.0625 4.0625 C8.051875 4.371875 7.04125 4.68125 6 5 C5.01 5.495 5.01 5.495 4 6 C1.96855359 5.06553465 -0.03533587 4.06775224 -2 3 C-2 2.34 -2 1.68 -2 1 C-1.34 0.67 -0.68 0.34 0 0 Z " fill="#1E1E1E" transform="translate(139,103)"/>
<path d="M0 0 C8.57142857 -0.28571429 8.57142857 -0.28571429 12 2 C12 2.66 12 3.32 12 4 C8.04 3.67 4.08 3.34 0 3 C0 2.01 0 1.02 0 0 Z " fill="#F8F8F8" transform="translate(108,51)"/>
<path d="M0 0 C-0.66 1.32 -1.32 2.64 -2 4 C-2.66 4 -3.32 4 -4 4 C-3.67 5.65 -3.34 7.3 -3 9 C-4.32 8.34 -5.64 7.68 -7 7 C-6.6875 4.625 -6.6875 4.625 -6 2 C-3 0 -3 0 0 0 Z " fill="#F8F8F8" transform="translate(141,100)"/>
<path d="M0 0 C0.99 0.33 1.98 0.66 3 1 C4.28317892 4.84953676 4.06643637 7.94738135 4 12 C3.01 12.495 3.01 12.495 2 13 C1.66568899 11.02099824 1.33257681 9.04179393 1 7.0625 C0.814375 5.96035156 0.62875 4.85820313 0.4375 3.72265625 C0 1 0 1 0 0 Z " fill="#F8F8F8" transform="translate(24,114)"/>
<path d="M0 0 C1.99954746 -0.04254356 4.00041636 -0.04080783 6 0 C6.33 0.33 6.66 0.66 7 1 C6.71269945 3.33944736 6.38063221 5.6739143 6 8 C4.68 8.33 3.36 8.66 2 9 C2 8.34 2 7.68 2 7 C2.99 7 3.98 7 5 7 C5 5.68 5 4.36 5 3 C2.525 2.01 2.525 2.01 0 1 C0 0.67 0 0.34 0 0 Z " fill="#F6F6F6" transform="translate(178,64)"/>
<path d="M0 0 C0.66 0.33 1.32 0.66 2 1 C1.67 1.99 1.34 2.98 1 4 C-2.5625 5.6875 -2.5625 5.6875 -6 7 C-6 5.68 -6 4.36 -6 3 C-4.03533587 1.93224776 -2.03144641 0.93446535 0 0 Z " fill="#EBEBEB" transform="translate(94,31)"/>
<path d="M0 0 C5.53846154 -0.36923077 5.53846154 -0.36923077 7.875 1.5 C8.24625 1.995 8.6175 2.49 9 3 C8.67 3.66 8.34 4.32 8 5 C4.5625 4.1875 4.5625 4.1875 1 3 C0.67 2.01 0.34 1.02 0 0 Z " fill="#E7E6E7" transform="translate(38,155)"/>
<path d="M0 0 C1.98 0.99 1.98 0.99 4 2 C4 2.66 4 3.32 4 4 C4.99 4 5.98 4 7 4 C7 4.99 7 5.98 7 7 C4.625 6.8125 4.625 6.8125 2 6 C0 2.19047619 0 2.19047619 0 0 Z " fill="#F8F8F8" transform="translate(45,158)"/>
<path d="M0 0 C-0.125 1.8125 -0.125 1.8125 -1 4 C-4.0625 5.75 -4.0625 5.75 -7 7 C-4.60526316 0 -4.60526316 0 0 0 Z " fill="#F2F1F2" transform="translate(146,115)"/>
<path d="M0 0 C1.65 1.65 3.3 3.3 5 5 C4.01 5.66 3.02 6.32 2 7 C0.68 5.35 -0.64 3.7 -2 2 C-1.34 2 -0.68 2 0 2 C0 1.34 0 0.68 0 0 Z " fill="#DCDCDC" transform="translate(29,143)"/>
<path d="M0 0 C0 3.57575896 -1.08840607 5.05295935 -3 8 C-3.99 7.67 -4.98 7.34 -6 7 C-6.33 7.99 -6.66 8.98 -7 10 C-7 6 -7 6 -5.46875 4.296875 C-4.8190625 3.78640625 -4.169375 3.2759375 -3.5 2.75 C-2.8503125 2.22921875 -2.200625 1.7084375 -1.53125 1.171875 C-0.77328125 0.59179688 -0.77328125 0.59179688 0 0 Z " fill="#282828" transform="translate(46,67)"/>
<path d="M0 0 C0.66 0.33 1.32 0.66 2 1 C0.75453595 4.73639216 -0.63404953 5.18756513 -4 7 C-4.33 5.68 -4.66 4.36 -5 3 C-2.625 1.4375 -2.625 1.4375 0 0 Z " fill="#E2E2E2" transform="translate(144,52)"/>
<path d="M0 0 C0 2.64779693 -0.17195931 4.51587793 -1 7 C-1.99 7.495 -1.99 7.495 -3 8 C-3 7.34 -3 6.68 -3 6 C-3.66 5.67 -4.32 5.34 -5 5 C-3.35 3.35 -1.7 1.7 0 0 Z " fill="#DEDEDE" transform="translate(68,158)"/>
<path d="M0 0 C0.33 0.99 0.66 1.98 1 3 C3.00016466 4.20882096 3.00016466 4.20882096 5 5 C3.35 5.33 1.7 5.66 0 6 C-0.66 4.68 -1.32 3.36 -2 2 C-1.34 1.34 -0.68 0.68 0 0 Z " fill="#F6F6F6" transform="translate(15,99)"/>
<path d="M0 0 C-2.68841859 2.25245881 -4.64641875 3.88213958 -8 5 C-7.625 3.0625 -7.625 3.0625 -7 1 C-4.53721199 -0.231394 -2.7204945 -0.07159196 0 0 Z " fill="#1C1C1C" transform="translate(150,55)"/>
<path d="M0 0 C2.31 0 4.62 0 7 0 C4.31158141 2.25245881 2.35358125 3.88213958 -1 5 C-0.67 3.35 -0.34 1.7 0 0 Z " fill="#2C2C2C" transform="translate(101,136)"/>
<path d="M0 0 C1.98 0.66 3.96 1.32 6 2 C5.01 2.495 5.01 2.495 4 3 C4 3.66 4 4.32 4 5 C2.0625 4.625 2.0625 4.625 0 4 C-0.33 3.34 -0.66 2.68 -1 2 C-0.67 1.34 -0.34 0.68 0 0 Z " fill="#E1E1E1" transform="translate(141,100)"/>
<path d="M0 0 C0.66 0.33 1.32 0.66 2 1 C1.67 2.32 1.34 3.64 1 5 C0.34 5 -0.32 5 -1 5 C-1.33 5.66 -1.66 6.32 -2 7 C-2.33 5.35 -2.66 3.7 -3 2 C-2.01 1.34 -1.02 0.68 0 0 Z " fill="#E1E1E1" transform="translate(44,47)"/>
<path d="M0 0 C0.66 0.33 1.32 0.66 2 1 C1.67 1.99 1.34 2.98 1 4 C-1.5625 5.1875 -1.5625 5.1875 -4 6 C-4.33 5.34 -4.66 4.68 -5 4 C-4.34 4 -3.68 4 -3 4 C-2.67 3.01 -2.34 2.02 -2 1 C-1.34 0.67 -0.68 0.34 0 0 Z " fill="#F6F6F6" transform="translate(127,125)"/>
<path d="M0 0 C0.66 1.32 1.32 2.64 2 4 C0.824375 4.4640625 0.824375 4.4640625 -0.375 4.9375 C-2.92330128 5.92875038 -2.92330128 5.92875038 -5 7 C-3.70700306 4.11562221 -2.34058637 2.12780579 0 0 Z " fill="#E9E9E9" transform="translate(47,62)"/>
<path d="M0 0 C0.99 0.33 1.98 0.66 3 1 C2.67 2.65 2.34 4.3 2 6 C1.01 6.33 0.02 6.66 -1 7 C-0.67 4.69 -0.34 2.38 0 0 Z " fill="#F8F8F8" transform="translate(49,57)"/>
<path d="M0 0 C0.66 0.33 1.32 0.66 2 1 C1.67 2.32 1.34 3.64 1 5 C-2 5 -2 5 -4 4 C-2.68 2.68 -1.36 1.36 0 0 Z " fill="#DEDEDE" transform="translate(29,88)"/>
<path d="M0 0 C0.99 0.99 1.98 1.98 3 3 C1.02 3.99 -0.96 4.98 -3 6 C-1.125 1.125 -1.125 1.125 0 0 Z " fill="#E8E8E8" transform="translate(159,53)"/>
<path d="M0 0 C1.9375 0.375 1.9375 0.375 4 1 C4.33 1.66 4.66 2.32 5 3 C4.34 3 3.68 3 3 3 C2.67 3.66 2.34 4.32 2 5 C0.68 4.01 -0.64 3.02 -2 2 C-1.34 2 -0.68 2 0 2 C0 1.34 0 0.68 0 0 Z " fill="#D7D7D7" transform="translate(170,47)"/>
<path d="M0 0 C0.66 0.33 1.32 0.66 2 1 C1.34 2.98 0.68 4.96 0 7 C-0.66 6.67 -1.32 6.34 -2 6 C-1.125 1.125 -1.125 1.125 0 0 Z " fill="#FBFBFB" transform="translate(162,48)"/>
<path d="M0 0 C1.32 1.65 2.64 3.3 4 5 C3.34 5 2.68 5 2 5 C1.67 5.66 1.34 6.32 1 7 C0.34 6.34 -0.32 5.68 -1 5 C-0.625 2.375 -0.625 2.375 0 0 Z " fill="#DEDEDE" transform="translate(99,44)"/>
</svg>
